<svg width="181" height="59" viewBox="0 0 181 59" fill="none" xmlns="http://www.w3.org/2000/svg">
<g id="level">
<path d="M0.200012 58V0.400024H10.44V58H0.200012Z" fill="white"/>
<path d="M43.3831 58.96C39.3831 58.96 35.8365 58.1067 32.7431 56.4C29.6498 54.6934 27.2231 52.2934 25.4631 49.2C23.7031 46.1067 22.8231 42.5334 22.8231 38.48C22.8231 34.3734 23.6765 30.72 25.3831 27.52C27.1431 24.32 29.5431 21.84 32.5831 20.08C35.6765 18.2667 39.3031 17.36 43.4631 17.36C47.3565 17.36 50.7965 18.2134 53.7831 19.92C56.7698 21.6267 59.0898 23.9734 60.7431 26.96C62.4498 29.8934 63.3031 33.1734 63.3031 36.8C63.3031 37.3867 63.2765 38 63.2231 38.64C63.2231 39.28 63.1965 39.9467 63.1431 40.64H32.9831C33.1965 43.7334 34.2631 46.16 36.1831 47.92C38.1565 49.68 40.5298 50.56 43.3031 50.56C45.3831 50.56 47.1165 50.1067 48.5031 49.2C49.9431 48.24 51.0098 47.0134 51.7031 45.52H62.1031C61.3565 48.0267 60.1031 50.32 58.3431 52.4C56.6365 54.4267 54.5031 56.0267 51.9431 57.2C49.4365 58.3734 46.5831 58.96 43.3831 58.96ZM43.4631 25.68C40.9565 25.68 38.7431 26.4 36.8231 27.84C34.9031 29.2267 33.6765 31.36 33.1431 34.24H52.9031C52.7431 31.6267 51.7831 29.5467 50.0231 28C48.2631 26.4534 46.0765 25.68 43.4631 25.68Z" fill="white"/>
<path d="M84.2731 58L69.7131 18.32H80.4331L90.5131 48.32L100.593 18.32H111.313L96.6731 58H84.2731Z" fill="white"/>
<path d="M138.299 58.96C134.299 58.96 130.752 58.1067 127.659 56.4C124.565 54.6934 122.139 52.2934 120.379 49.2C118.619 46.1067 117.739 42.5334 117.739 38.48C117.739 34.3734 118.592 30.72 120.299 27.52C122.059 24.32 124.459 21.84 127.499 20.08C130.592 18.2667 134.219 17.36 138.379 17.36C142.272 17.36 145.712 18.2134 148.699 19.92C151.685 21.6267 154.005 23.9734 155.659 26.96C157.365 29.8934 158.219 33.1734 158.219 36.8C158.219 37.3867 158.192 38 158.139 38.64C158.139 39.28 158.112 39.9467 158.059 40.64H127.899C128.112 43.7334 129.179 46.16 131.099 47.92C133.072 49.68 135.445 50.56 138.219 50.56C140.299 50.56 142.032 50.1067 143.419 49.2C144.859 48.24 145.925 47.0134 146.619 45.52H157.019C156.272 48.0267 155.019 50.32 153.259 52.4C151.552 54.4267 149.419 56.0267 146.859 57.2C144.352 58.3734 141.499 58.96 138.299 58.96ZM138.379 25.68C135.872 25.68 133.659 26.4 131.739 27.84C129.819 29.2267 128.592 31.36 128.059 34.24H147.819C147.659 31.6267 146.699 29.5467 144.939 28C143.179 26.4534 140.992 25.68 138.379 25.68Z" fill="white"/>
<path d="M170.031 58V0.400024H180.271V58H170.031Z" fill="white"/>
</g>
</svg>
