<svg width="61" height="12" viewBox="0 0 61 12" fill="none" xmlns="http://www.w3.org/2000/svg">
<g id="Listen on">
<path d="M0.109985 11V0.500011H1.36999V9.99501H6.25999V11H0.109985Z" fill="white"/>
<path d="M8.68085 1.91001C8.43085 1.91001 8.22084 1.83001 8.05084 1.67001C7.89084 1.50001 7.81084 1.29001 7.81084 1.04001C7.81084 0.800012 7.89084 0.600012 8.05084 0.440012C8.22084 0.280012 8.43085 0.200012 8.68085 0.200012C8.92085 0.200012 9.12584 0.280012 9.29585 0.440012C9.46585 0.600012 9.55085 0.800012 9.55085 1.04001C9.55085 1.29001 9.46585 1.50001 9.29585 1.67001C9.12584 1.83001 8.92085 1.91001 8.68085 1.91001ZM8.05084 11V3.56001H9.31085V11H8.05084Z" fill="white"/>
<path d="M14.3547 11.18C13.4647 11.18 12.7247 10.955 12.1347 10.505C11.5447 10.055 11.1997 9.44501 11.0997 8.67501H12.3897C12.4697 9.06501 12.6747 9.40501 13.0047 9.69501C13.3447 9.97501 13.7997 10.115 14.3697 10.115C14.8997 10.115 15.2897 10.005 15.5397 9.78501C15.7897 9.55501 15.9147 9.28501 15.9147 8.97501C15.9147 8.52501 15.7497 8.22501 15.4197 8.07501C15.0997 7.92501 14.6447 7.79001 14.0547 7.67001C13.6547 7.59001 13.2547 7.47501 12.8547 7.32501C12.4547 7.17501 12.1197 6.96501 11.8497 6.69501C11.5797 6.41501 11.4447 6.05001 11.4447 5.60001C11.4447 4.95001 11.6847 4.42001 12.1647 4.01001C12.6547 3.59001 13.3147 3.38001 14.1447 3.38001C14.9347 3.38001 15.5797 3.58001 16.0797 3.98001C16.5897 4.37001 16.8847 4.93001 16.9647 5.66001H15.7197C15.6697 5.28001 15.5047 4.98501 15.2247 4.77501C14.9547 4.55501 14.5897 4.44501 14.1297 4.44501C13.6797 4.44501 13.3297 4.54001 13.0797 4.73001C12.8397 4.92001 12.7197 5.17001 12.7197 5.48001C12.7197 5.78001 12.8747 6.01501 13.1847 6.18501C13.5047 6.35501 13.9347 6.50001 14.4747 6.62001C14.9347 6.72001 15.3697 6.84501 15.7797 6.99501C16.1997 7.13501 16.5397 7.35001 16.7997 7.64001C17.0697 7.92001 17.2047 8.33001 17.2047 8.87001C17.2147 9.54001 16.9597 10.095 16.4397 10.535C15.9297 10.965 15.2347 11.18 14.3547 11.18Z" fill="white"/>
<path d="M21.6078 11C20.9278 11 20.3928 10.835 20.0028 10.505C19.6128 10.175 19.4178 9.58001 19.4178 8.72001V4.62501H18.1278V3.56001H19.4178L19.5828 1.77501H20.6778V3.56001H22.8678V4.62501H20.6778V8.72001C20.6778 9.19001 20.7728 9.51001 20.9628 9.68001C21.1528 9.84001 21.4878 9.92001 21.9678 9.92001H22.7478V11H21.6078Z" fill="white"/>
<path d="M27.6085 11.18C26.8985 11.18 26.2685 11.02 25.7185 10.7C25.1685 10.37 24.7335 9.91501 24.4135 9.33501C24.1035 8.75501 23.9485 8.07001 23.9485 7.28001C23.9485 6.50001 24.1035 5.82001 24.4135 5.24001C24.7235 4.65001 25.1535 4.19501 25.7035 3.87501C26.2635 3.54501 26.9085 3.38001 27.6385 3.38001C28.3585 3.38001 28.9785 3.54501 29.4985 3.87501C30.0285 4.19501 30.4335 4.62001 30.7135 5.15001C30.9935 5.68001 31.1335 6.25001 31.1335 6.86001C31.1335 6.97001 31.1285 7.08001 31.1185 7.19001C31.1185 7.30001 31.1185 7.42501 31.1185 7.56501H25.1935C25.2235 8.13501 25.3535 8.61001 25.5835 8.99001C25.8235 9.36001 26.1185 9.64001 26.4685 9.83001C26.8285 10.02 27.2085 10.115 27.6085 10.115C28.1285 10.115 28.5635 9.99501 28.9135 9.75501C29.2635 9.51501 29.5185 9.19001 29.6785 8.78001H30.9235C30.7235 9.47001 30.3385 10.045 29.7685 10.505C29.2085 10.955 28.4885 11.18 27.6085 11.18ZM27.6085 4.44501C27.0085 4.44501 26.4735 4.63001 26.0035 5.00001C25.5435 5.36001 25.2785 5.89001 25.2085 6.59001H29.8885C29.8585 5.92001 29.6285 5.39501 29.1985 5.01501C28.7685 4.63501 28.2385 4.44501 27.6085 4.44501Z" fill="white"/>
<path d="M32.8035 11V3.56001H33.9435L34.0185 4.89501C34.2585 4.42501 34.6035 4.05501 35.0535 3.78501C35.5035 3.51501 36.0135 3.38001 36.5835 3.38001C37.4635 3.38001 38.1635 3.65001 38.6835 4.19001C39.2135 4.72001 39.4785 5.54001 39.4785 6.65001V11H38.2185V6.78501C38.2185 5.23501 37.5785 4.46001 36.2985 4.46001C35.6585 4.46001 35.1235 4.69501 34.6935 5.16501C34.2735 5.62501 34.0635 6.28501 34.0635 7.14501V11H32.8035Z" fill="white"/>
<path d="M48.7472 11.18C48.0472 11.18 47.4173 11.02 46.8573 10.7C46.2972 10.38 45.8523 9.93001 45.5223 9.35001C45.2023 8.76001 45.0423 8.07001 45.0423 7.28001C45.0423 6.49001 45.2072 5.80501 45.5373 5.22501C45.8673 4.63501 46.3122 4.18001 46.8722 3.86001C47.4422 3.54001 48.0773 3.38001 48.7773 3.38001C49.4773 3.38001 50.1073 3.54001 50.6673 3.86001C51.2273 4.18001 51.6673 4.63501 51.9873 5.22501C52.3173 5.80501 52.4823 6.49001 52.4823 7.28001C52.4823 8.07001 52.3173 8.76001 51.9873 9.35001C51.6572 9.93001 51.2072 10.38 50.6372 10.7C50.0772 11.02 49.4473 11.18 48.7472 11.18ZM48.7472 10.1C49.1772 10.1 49.5773 9.99501 49.9473 9.78501C50.3172 9.57501 50.6173 9.26001 50.8473 8.84001C51.0773 8.42001 51.1922 7.90001 51.1922 7.28001C51.1922 6.66001 51.0773 6.14001 50.8473 5.72001C50.6273 5.30001 50.3322 4.98501 49.9622 4.77501C49.5923 4.56501 49.1973 4.46001 48.7773 4.46001C48.3473 4.46001 47.9473 4.56501 47.5773 4.77501C47.2073 4.98501 46.9072 5.30001 46.6772 5.72001C46.4473 6.14001 46.3322 6.66001 46.3322 7.28001C46.3322 7.90001 46.4473 8.42001 46.6772 8.84001C46.9072 9.26001 47.2023 9.57501 47.5623 9.78501C47.9323 9.99501 48.3273 10.1 48.7472 10.1Z" fill="white"/>
<path d="M54.2342 11V3.56001H55.3742L55.4492 4.89501C55.6892 4.42501 56.0342 4.05501 56.4842 3.78501C56.9342 3.51501 57.4442 3.38001 58.0142 3.38001C58.8942 3.38001 59.5942 3.65001 60.1142 4.19001C60.6442 4.72001 60.9092 5.54001 60.9092 6.65001V11H59.6492V6.78501C59.6492 5.23501 59.0092 4.46001 57.7292 4.46001C57.0892 4.46001 56.5542 4.69501 56.1242 5.16501C55.7042 5.62501 55.4942 6.28501 55.4942 7.14501V11H54.2342Z" fill="white"/>
</g>
</svg>
